REM DIRINDEX 1\2,1\3,1\4,1\5,1\6
REM DIRNAME "folder01","folder02","folder03","folder04","folder05","folder06"
TITLE ""
FILE "Disc2Track52.mp3" MP3
  TRACK 01 AUDIO
    TITLE "3:cjc161_03570"
    INDEX 01 00:00:00
  TRACK 02 AUDIO
    TITLE "4:cjc161_03571"
    INDEX 01 00:01:16
  TRACK 03 AUDIO
    TITLE "5:cjc161_03572"
    INDEX 01 00:02:07
  TRACK 04 AUDIO
    TITLE "6:cjc161_03573"
    INDEX 01 00:03:32
  TRACK 05 AUDIO
    TITLE "0:"
    INDEX 01 00:05:41
  TRACK 06 AUDIO
    TITLE "3:cjc161_03574"
    INDEX 01 00:06:03
  TRACK 07 AUDIO
    TITLE "4:cjc161_03575"
    INDEX 01 00:07:32
  TRACK 08 AUDIO
    TITLE "5:cjc161_03576"
    INDEX 01 00:08:41
  TRACK 09 AUDIO
    TITLE "0:"
    INDEX 01 00:09:70
  TRACK 10 AUDIO
    TITLE "3:cjc161_03577"
    INDEX 01 00:10:36
  TRACK 11 AUDIO
    TITLE "4:cjc161_03578"
    INDEX 01 00:11:63
  TRACK 12 AUDIO
    TITLE "5:cjc161_03579"
    INDEX 01 00:13:52
  TRACK 13 AUDIO
    TITLE "0:"
    INDEX 01 00:15:04
  TRACK 14 AUDIO
    TITLE "3:cjc161_03580"
    INDEX 01 00:15:45
  TRACK 15 AUDIO
    TITLE "4:cjc161_03581"
    INDEX 01 00:17:01
  TRACK 16 AUDIO
    TITLE "5:cjc161_03582"
    INDEX 01 00:18:16
  TRACK 17 AUDIO
    TITLE "6:cjc161_03583"
    INDEX 01 00:19:47
  TRACK 18 AUDIO
    TITLE "0:"
    INDEX 01 00:21:63
  TRACK 19 AUDIO
    TITLE "3:cjc161_03584"
    INDEX 01 00:22:20
  TRACK 20 AUDIO
    TITLE "4:cjc161_03585"
    INDEX 01 00:23:52
  TRACK 21 AUDIO
    TITLE "5:cjc161_03586"
    INDEX 01 00:24:50
  TRACK 22 AUDIO
    TITLE "6:cjc161_03587"
    INDEX 01 00:26:10
  TRACK 23 AUDIO
    TITLE "0:"
    INDEX 01 00:28:13
  TRACK 24 AUDIO
    TITLE "3:cjc161_03588"
    INDEX 01 00:28:44
  TRACK 25 AUDIO
    TITLE "4:cjc161_03589"
    INDEX 01 00:30:15
  TRACK 26 AUDIO
    TITLE "5:cjc161_03590"
    INDEX 01 00:31:13
  TRACK 27 AUDIO
    TITLE "6:cjc161_03591"
    INDEX 01 00:32:57
  TRACK 28 AUDIO
    TITLE "0:"
    INDEX 01 00:37:25
  TRACK 29 AUDIO
    TITLE "3:cjc161_03592"
    INDEX 01 00:37:57
  TRACK 30 AUDIO
    TITLE "4:cjc161_03593"
    INDEX 01 00:39:04
  TRACK 31 AUDIO
    TITLE "5:cjc161_03594"
    INDEX 01 00:40:14
  TRACK 32 AUDIO
    TITLE "6:cjc161_03595"
    INDEX 01 00:41:39
  TRACK 33 AUDIO
    TITLE "0:"
    INDEX 01 00:43:40
  TRACK 34 AUDIO
    TITLE "3:cjc161_03596"
    INDEX 01 00:43:69
  TRACK 35 AUDIO
    TITLE "4:cjc161_03597"
    INDEX 01 00:45:29
  TRACK 36 AUDIO
    TITLE "5:cjc161_03598"
    INDEX 01 00:46:34
  TRACK 37 AUDIO
    TITLE "0:"
    INDEX 01 00:47:69
  TRACK 38 AUDIO
    TITLE "3:cjc161_03599"
    INDEX 01 00:48:33
  TRACK 39 AUDIO
    TITLE "4:cjc161_03600"
    INDEX 01 00:49:71
  TRACK 40 AUDIO
    TITLE "5:cjc161_03601"
    INDEX 01 00:51:16
  TRACK 41 AUDIO
    TITLE "0:"
    INDEX 01 00:52:56
  TRACK 42 AUDIO
    TITLE "3:cjc161_03602"
    INDEX 01 00:53:20
  TRACK 43 AUDIO
    TITLE "4:cjc161_03603"
    INDEX 01 00:54:59
  TRACK 44 AUDIO
    TITLE "5:cjc161_03604"
    INDEX 01 00:56:28
  TRACK 45 AUDIO
    TITLE "6:cjc161_03605"
    INDEX 01 00:57:63
  TRACK 46 AUDIO
    TITLE "0:"
    INDEX 01 01:00:30
  TRACK 47 AUDIO
    TITLE "3:cjc161_03606"
    INDEX 01 01:00:67
  TRACK 48 AUDIO
    TITLE "4:cjc161_03607"
    INDEX 01 01:02:37
  TRACK 49 AUDIO
    TITLE "5:cjc161_03608"
    INDEX 01 01:03:50
  TRACK 50 AUDIO
    TITLE "0:"
    INDEX 01 01:05:22
  TRACK 51 AUDIO
    TITLE "3:cjc161_03609"
    INDEX 01 01:05:59
  TRACK 52 AUDIO
    TITLE "4:cjc161_03610"
    INDEX 01 01:07:32
  TRACK 53 AUDIO
    TITLE "5:cjc161_03611"
    INDEX 01 01:10:25
  TRACK 54 AUDIO
    TITLE "6:cjc161_03612"
    INDEX 01 01:12:02
  TRACK 55 AUDIO
    TITLE "0:"
    INDEX 01 01:14:32
  TRACK 56 AUDIO
    TITLE "3:cjc161_03613"
    INDEX 01 01:14:64
  TRACK 57 AUDIO
    TITLE "4:cjc161_03614"
    INDEX 01 01:16:19
  TRACK 58 AUDIO
    TITLE "5:cjc161_03615"
    INDEX 01 01:18:16
  TRACK 59 AUDIO
    TITLE "6:cjc161_03616"
    INDEX 01 01:19:47
  TRACK 60 AUDIO
    TITLE "0:"
    INDEX 01 01:22:71
